<?xml version="1.0" encoding="UTF-8"?>
<svg version="1.1" xmlns="http://www.w3.org/2000/svg" width="151" height="148">
<path d="M0 0 C49.83 0 99.66 0 151 0 C151 48.84 151 97.68 151 148 C101.17 148 51.34 148 0 148 C0 99.16 0 50.32 0 0 Z " fill="#02A740" transform="translate(0,0)"/>
<path d="M0 0 C49.83 0 99.66 0 151 0 C151 48.84 151 97.68 151 148 C101.17 148 51.34 148 0 148 C0 99.16 0 50.32 0 0 Z M26 33 C20.68252657 39.35169762 16.9870718 46.29707492 14 54 C13.67902344 54.804375 13.35804687 55.60875 13.02734375 56.4375 C7.38712843 73.22697816 11.06095309 90.46746574 18.41796875 105.9921875 C26.28721934 120.14361293 38.99052338 130.29855852 54 136 C55.20462891 136.47953125 55.20462891 136.47953125 56.43359375 136.96875 C73.2154602 142.62379392 90.47323024 138.93631517 105.9921875 131.58203125 C120.65753878 123.42699947 130.42559738 110.60410431 136 95 C136.3196875 94.20207031 136.639375 93.40414062 136.96875 92.58203125 C142.03788623 78.57150193 139.41896936 61.2248339 133.47265625 47.9453125 C124.43286832 29.86573664 111.25054267 19.80161648 92.50390625 13.1640625 C68.10078022 5.05689243 43.01081102 14.94006407 26 33 Z " fill="#DAFBE6" transform="translate(0,0)"/>
<path d="M0 0 C2.125 -0.4375 2.125 -0.4375 5 0 C9.22617056 3.5648627 11.6874226 7.61843264 13 13 C13.886875 12.505 14.77375 12.01 15.6875 11.5 C21.69506273 8.94280935 28.96390146 8.87017664 35.21875 10.62109375 C39.09995966 12.53616431 42.02141929 15.55857503 44.1171875 19.28515625 C47.98807866 31.18900296 44.616046 45.13386157 39.57421875 56.1015625 C36.15223827 62.66256901 32.21059246 70.14930066 25 73 C20.8826507 72.80393575 17.84115888 72.31543458 14 70.875 C9.24529278 69.4882104 4.94759746 70.14495721 0.4375 72.125 C-3.10730411 73.39749378 -5.37987349 72.95266487 -9 72 C-18.99501161 65.96134715 -23.37181118 53.30356525 -26.1015625 42.45703125 C-27.834285 34.54473003 -29.41504993 25.35845482 -25.33984375 18.00390625 C-22.37732271 14.54301718 -19.33839922 11.56151603 -15 10 C-11.46875 9.734375 -11.46875 9.734375 -7.5 9.75 C-6.1903125 9.74484375 -4.880625 9.7396875 -3.53125 9.734375 C-0.34757928 9.97385466 1.36102529 10.30351625 4 12 C2.73917581 8.35503155 2.73917581 8.35503155 0.3125 5.4375 C-0.120625 4.963125 -0.55375 4.48875 -1 4 C-0.6875 1.8125 -0.6875 1.8125 0 0 Z " fill="#DAFBE5" transform="translate(66,39)"/>
</svg>
